<svg width="353" height="116" viewBox="0 0 353 116" fill="none" xmlns="http://www.w3.org/2000/svg"><path d="M81.1 42.462H56.3c13.8-6.904 14.9-11.307 14.4-13.71-1.2-4.002-5.7-7.004-10-5.403-5.6 2.102-7.1 10.407-8.6 16.412-2-6.105-3.8-13.81-8.2-17.713-1.3-1.1-3.1-2.301-5.8-2.001-4 .4-9.8 5.404-7.5 11.008 2.3 5.403 9.7 8.806 14.6 11.508H22.9c-1.6 0-2.9 1.3-2.9 2.902v11.307c0 1.602 1.3 2.903 2.9 2.903h.3V96H81V59.574h.1c1.6 0 2.9-1.3 2.9-2.902V45.365c0-1.602-1.3-2.903-2.9-2.903ZM62.4 25.851c2.1-.3 5 1.3 5.3 3.202.4 2.802-3.4 5.304-5.1 6.405-2.5 1.7-4.9 2.601-7.3 4.102.9-3.702 2.5-13.009 7.1-13.71ZM39.5 35.858c-2.2-1.501-6.5-4.403-6.4-7.806.1-3.602 5.7-6.604 8.8-3.902 3.9 3.402 5.7 11.107 7.1 16.611-3.2-1.5-6.3-2.802-9.5-4.903Zm6 57.14H26.1V59.574h19.4v33.424Zm0-36.526H23V45.465h22.5v11.007Zm10.2 0v36.526h-7.2V45.565h7.2v10.907ZM78 92.998H58.6V59.574H78v33.424Zm2.9-36.526H58.6V45.465h22.3v11.007ZM163.618 85h16.065V61.2h-16.065V85Zm2.912-20.9h10.141v18H166.53v-18Z" fill="#83B3D3"/><path d="M206.892 59.3 209 57.2l-9.94-9.9V20h-13.956v13.6L171.45 20 134 57.2l2.108 2.1 7.832-7.8v37.6h-4.016V92h64.156v-2.9h-5.12V51.5l7.932 7.8Zm-10.844 29.8h-49.197V48.5l24.599-24.4 24.598 24.4v40.6Zm0-44.7-7.932-7.9V22.9h7.932v21.5Z" fill="#83B3D3"/><path d="M163.819 47.1c0 4.3 3.514 7.7 7.731 7.7 4.317 0 7.832-3.5 7.832-7.7 0-4.3-3.515-7.7-7.832-7.7-4.217 0-7.731 3.4-7.731 7.7Zm7.832-5c2.71 0 5.02 2.2 5.02 4.9s-2.209 4.9-5.02 4.9c-2.711 0-5.02-2.2-5.02-4.9s2.208-4.9 5.02-4.9ZM153.98 61.2h-3.012v3.9h3.012v-3.9ZM159.904 61.2h-3.012v3.9h3.012v-3.9ZM153.98 67.2h-3.012v3.9h3.012v-3.9ZM159.904 67.2h-3.012v3.9h3.012v-3.9ZM186.008 61.2h-3.012v3.9h3.012v-3.9ZM191.932 61.2h-3.012v3.9h3.012v-3.9ZM186.008 67.2h-3.012v3.9h3.012v-3.9ZM191.932 67.2h-3.012v3.9h3.012v-3.9ZM328.776 66.7H262.81c-2.305 0-4.11 1.9-4.11 4.3v3.5c0 2.4 1.905 4.3 4.11 4.3h.903v1.1c0 5.5 4.311 10.1 9.624 10.1h44.712c5.313 0 9.624-4.5 9.624-10.1v-1.1h.902c2.306 0 4.111-1.9 4.111-4.3V71c.2-2.3-1.705-4.3-3.91-4.3Zm-3.91 13.2c0 3.9-3.007 7-6.717 7h-44.812c-3.709 0-6.717-3.2-6.717-7v-1.1h58.246v1.1Zm5.113-5.4c0 .7-.602 1.3-1.203 1.3H262.71c-.702 0-1.203-.6-1.203-1.3V71c0-.7.602-1.3 1.203-1.3h65.966c.701 0 1.203.6 1.203 1.3.1 0 .1 3.5.1 3.5ZM274.339 58.4l5.414 4.1 5.313-4.1 5.314 4.1 5.313-4.1 5.414 4.1 5.313-4.1 5.313 4.1 5.414-4.1 5.313 4.1 6.216-4.7-1.705-2.5-4.511 3.4-5.313-4.1-5.414 4.1-5.313-4.1-5.313 4.1-5.414-4.1-5.313 4.1-5.314-4.1-5.313 4.1-5.414-4.1-5.313 4.1-4.511-3.4-1.705 2.5 6.216 4.7 5.313-4.1ZM266.72 51.5h60.953c0-.6.1-1.2.1-1.9v-1.2c-.701-15.7-14.737-28.4-31.98-28.4-17.343 0-31.378 12.7-32.08 28.5v1.2c0 .6-.005 1.2.096 1.8h2.911ZM295.793 23c15.639 0 28.472 11.3 29.073 25.5H266.72c.602-14.1 13.434-25.5 29.073-25.5Z" fill="#83B3D3"/><path d="M295.793 37.3c1.052 0 1.905-.895 1.905-2s-.853-2-1.905-2-1.905.895-1.905 2 .853 2 1.905 2ZM287.974 32.2c1.052 0 1.904-.895 1.904-2s-.852-2-1.904-2-1.905.895-1.905 2 .853 2 1.905 2ZM303.513 32.2c1.052 0 1.904-.895 1.904-2s-.852-2-1.904-2-1.905.895-1.905 2 .853 2 1.905 2Z" fill="#83B3D3"/><rect x=".5" y=".5" width="351.514" height="114.947" rx="4.5" stroke="#7B61FF" stroke-dasharray="10 5"/></svg>